<svg xmlns="http://www.w3.org/2000/svg" viewBox="0 0 500 600" width="500" height="600">
  <style>path { stroke: rgba(255,255,255,0.3); stroke-width: 0.8; cursor: pointer; transition: opacity 0.15s; } path:hover { opacity: 0.8; }</style>
  <path id="DE-BW" data-name="Baden-Württemberg" d="M 209.6,409.8 L 209.0,415.8 L 210.7,416.3 L 212.9,413.4 L 213.9,416.3 L 216.9,413.4 L 219.0,415.2 L 218.8,418.5 L 221.2,421.9 L 218.4,425.5 L 220.4,426.2 L 223.2,423.4 L 222.4,425.2 L 223.8,425.2 L 224.3,430.5 L 228.3,430.5 L 230.7,426.1 L 231.6,428.7 L 233.6,428.6 L 232.3,433.0 L 235.8,436.5 L 233.0,437.6 L 233.9,439.6 L 232.8,440.3 L 234.8,441.1 L 235.3,444.2 L 233.1,445.9 L 234.3,446.2 L 233.8,449.7 L 240.4,453.6 L 237.9,456.7 L 240.2,457.2 L 240.2,460.7 L 245.4,461.4 L 250.6,467.7 L 249.2,469.7 L 250.6,470.7 L 249.2,473.7 L 250.3,476.2 L 248.3,478.7 L 252.5,484.6 L 248.3,486.3 L 249.7,484.0 L 248.0,483.8 L 245.2,486.8 L 244.6,484.2 L 241.2,483.2 L 240.3,486.0 L 243.7,489.7 L 242.3,490.0 L 243.2,495.5 L 238.9,496.2 L 239.5,497.5 L 236.1,499.8 L 229.1,500.0 L 229.4,502.0 L 225.8,505.4 L 230.6,512.0 L 231.5,518.8 L 234.3,524.3 L 234.1,529.9 L 231.3,533.9 L 232.7,535.4 L 232.5,539.2 L 231.1,539.9 L 233.9,543.4 L 230.6,545.4 L 233.1,547.2 L 233.6,552.9 L 231.4,553.0 L 230.8,555.5 L 228.4,552.0 L 225.4,554.5 L 219.3,552.8 L 214.5,557.6 L 205.5,559.0 L 202.0,554.6 L 192.8,552.9 L 179.2,543.1 L 185.9,548.9 L 188.1,553.5 L 185.2,554.5 L 176.6,548.2 L 177.5,549.4 L 174.0,549.3 L 177.3,551.7 L 171.6,554.4 L 169.7,552.5 L 170.7,550.9 L 167.4,548.6 L 165.5,550.1 L 166.9,552.7 L 163.3,551.6 L 163.5,547.0 L 161.4,547.2 L 159.7,544.3 L 158.4,547.0 L 157.9,544.4 L 155.3,543.7 L 155.7,545.4 L 150.5,546.7 L 147.1,552.8 L 150.5,555.2 L 157.0,552.9 L 158.4,554.6 L 156.8,554.9 L 156.1,558.0 L 152.9,555.5 L 149.8,557.7 L 151.7,559.0 L 148.8,560.0 L 143.3,559.7 L 141.4,557.1 L 137.1,556.3 L 131.2,560.5 L 124.0,561.4 L 121.3,558.5 L 117.8,558.4 L 110.2,562.3 L 108.4,560.6 L 110.7,560.0 L 110.3,558.5 L 107.1,559.3 L 103.0,554.0 L 104.6,539.3 L 107.8,533.1 L 105.2,528.8 L 105.6,523.1 L 110.1,516.4 L 111.4,510.9 L 114.0,509.1 L 113.4,504.4 L 117.0,496.6 L 117.0,491.2 L 125.3,480.1 L 131.2,477.0 L 136.7,466.4 L 141.6,463.2 L 145.0,456.6 L 146.3,447.3 L 151.5,442.7 L 149.4,440.6 L 151.6,438.7 L 151.8,436.4 L 150.1,436.5 L 152.3,433.0 L 149.2,432.4 L 150.3,430.9 L 147.8,425.4 L 148.3,423.1 L 156.5,427.3 L 158.2,425.4 L 156.9,421.2 L 161.8,420.2 L 161.0,423.5 L 163.4,427.5 L 172.1,428.2 L 171.0,430.8 L 168.3,430.6 L 169.0,433.1 L 167.0,434.7 L 169.9,435.6 L 174.7,431.7 L 174.7,428.2 L 183.7,427.6 L 181.6,425.8 L 182.5,423.2 L 190.0,423.0 L 192.8,418.1 L 198.0,418.9 L 198.4,414.3 L 197.0,413.0 L 195.3,414.8 L 196.4,413.3 L 192.4,412.5 L 193.8,412.2 L 193.2,410.4 L 202.6,409.1 L 205.8,412.2 L 205.7,409.6 L 209.6,409.8 Z M 162.4,550.3 L 163.1,551.6 L 160.0,551.7 L 162.4,550.3 Z" fill="#475569" />
  <path id="DE-BY" data-name="Bayern" d="M 233.9,355.5 L 237.4,355.2 L 238.9,358.2 L 243.9,359.5 L 247.5,364.5 L 246.9,366.6 L 250.2,366.0 L 251.9,369.5 L 257.6,371.0 L 257.9,378.4 L 263.5,380.2 L 264.0,376.8 L 270.1,376.7 L 263.2,371.5 L 263.4,368.9 L 268.9,366.8 L 274.4,366.8 L 277.3,370.2 L 277.3,368.6 L 279.6,370.2 L 283.0,368.6 L 285.4,371.2 L 284.5,374.1 L 290.0,375.6 L 291.5,368.5 L 289.8,360.7 L 293.6,359.9 L 294.8,357.5 L 298.9,358.0 L 298.3,362.5 L 299.8,364.6 L 301.5,363.8 L 303.6,368.0 L 307.1,365.9 L 316.9,364.5 L 318.9,366.6 L 324.5,364.2 L 326.7,366.6 L 326.6,369.5 L 333.8,372.2 L 334.4,374.4 L 331.8,376.3 L 337.5,380.5 L 337.5,386.4 L 340.6,387.8 L 340.4,389.8 L 352.1,395.2 L 351.4,398.4 L 355.0,399.3 L 352.7,405.5 L 351.3,405.7 L 351.2,408.8 L 347.8,411.3 L 349.8,414.6 L 354.0,416.0 L 353.9,419.8 L 355.9,420.4 L 357.0,426.0 L 359.9,426.8 L 359.3,430.4 L 360.7,433.7 L 365.7,435.9 L 366.9,439.2 L 375.4,439.5 L 379.4,442.2 L 379.6,445.0 L 386.8,451.5 L 386.8,453.5 L 392.6,455.2 L 398.0,459.9 L 399.0,465.4 L 402.6,467.5 L 403.3,465.6 L 407.3,465.6 L 411.4,471.4 L 415.4,472.0 L 419.7,479.1 L 417.2,482.5 L 419.2,487.9 L 418.4,491.4 L 414.9,495.6 L 403.0,491.0 L 399.6,493.1 L 400.5,496.4 L 398.3,505.8 L 392.1,510.7 L 382.3,512.3 L 371.1,517.6 L 365.3,523.4 L 377.8,541.2 L 373.3,549.3 L 378.5,549.4 L 381.8,552.0 L 383.0,555.4 L 380.1,559.1 L 380.4,565.1 L 378.4,567.0 L 376.2,566.2 L 367.7,560.6 L 366.7,559.3 L 369.0,557.0 L 366.2,555.1 L 366.8,553.0 L 357.9,552.8 L 356.5,555.8 L 352.9,556.1 L 349.4,551.3 L 340.5,553.0 L 340.3,548.7 L 336.3,551.5 L 338.0,558.0 L 328.4,556.6 L 320.4,559.5 L 309.3,558.2 L 306.5,563.9 L 299.3,563.8 L 296.8,566.6 L 298.6,568.3 L 294.5,567.9 L 291.1,572.0 L 288.6,571.9 L 289.7,569.1 L 276.2,571.6 L 273.7,566.2 L 270.5,566.2 L 273.3,563.7 L 271.5,562.2 L 265.9,563.6 L 257.3,559.8 L 255.3,562.3 L 248.9,559.0 L 248.9,564.9 L 250.4,565.6 L 250.8,569.2 L 248.9,572.8 L 246.7,573.0 L 243.4,577.8 L 235.7,580.0 L 238.6,571.8 L 232.0,574.4 L 230.6,570.6 L 231.9,570.1 L 231.7,567.6 L 227.0,565.6 L 225.7,561.4 L 220.8,562.7 L 217.8,561.3 L 217.2,558.2 L 213.9,562.0 L 207.9,559.8 L 210.1,557.2 L 215.0,557.3 L 219.3,552.8 L 225.4,554.5 L 228.4,552.0 L 230.8,555.5 L 231.4,553.0 L 233.6,552.9 L 233.1,547.2 L 230.6,545.4 L 233.9,543.4 L 231.1,539.9 L 232.5,539.2 L 232.7,535.4 L 231.3,533.9 L 234.1,529.9 L 234.3,524.3 L 231.5,518.8 L 230.6,512.0 L 225.8,505.4 L 229.4,502.0 L 229.1,500.0 L 236.1,499.8 L 239.5,497.5 L 238.9,496.2 L 243.2,495.5 L 242.3,490.0 L 243.7,489.7 L 240.3,486.0 L 241.2,483.2 L 244.6,484.2 L 245.2,486.8 L 248.0,483.8 L 249.7,484.0 L 248.3,486.3 L 252.5,484.6 L 248.3,478.7 L 250.3,476.2 L 249.2,473.7 L 250.6,470.7 L 249.2,469.7 L 250.6,467.7 L 245.4,461.4 L 240.2,460.7 L 240.2,457.2 L 237.9,456.7 L 240.4,453.6 L 233.8,449.7 L 234.3,446.2 L 233.1,445.9 L 235.3,444.2 L 234.8,441.1 L 232.8,440.3 L 233.9,439.6 L 233.0,437.6 L 235.8,436.5 L 232.3,433.0 L 233.6,428.6 L 231.6,428.7 L 230.7,426.1 L 228.3,430.5 L 225.1,430.8 L 223.4,429.8 L 223.2,423.4 L 220.4,426.2 L 218.4,425.5 L 221.2,421.6 L 217.5,413.4 L 214.1,416.3 L 212.9,413.4 L 210.1,416.3 L 208.7,415.3 L 209.9,409.0 L 205.7,409.6 L 205.8,412.2 L 202.6,409.1 L 196.1,409.7 L 192.4,412.5 L 196.4,413.3 L 194.7,413.8 L 195.9,415.1 L 197.6,413.3 L 198.8,415.6 L 198.0,418.9 L 192.8,418.1 L 188.8,423.5 L 183.3,423.8 L 180.7,421.7 L 182.7,418.9 L 181.8,415.6 L 185.2,412.0 L 182.9,411.0 L 184.3,408.4 L 182.3,408.7 L 182.2,405.1 L 179.3,404.9 L 178.6,394.9 L 180.3,394.6 L 179.4,391.2 L 176.7,390.5 L 178.7,386.4 L 183.9,385.4 L 185.7,385.9 L 185.5,388.0 L 188.9,383.8 L 195.9,384.9 L 198.0,388.6 L 203.1,387.7 L 203.7,382.5 L 202.3,382.0 L 202.1,377.2 L 210.1,377.9 L 208.9,376.9 L 209.8,375.3 L 214.3,372.4 L 214.4,365.0 L 221.3,366.2 L 225.1,364.6 L 230.9,356.1 L 233.9,355.5 Z" fill="#475569" />
  <path id="DE-BE" data-name="Berlin" d="M 385.8,207.6 L 388.6,208.5 L 389.3,205.2 L 391.4,205.5 L 392.1,203.1 L 396.3,205.6 L 401.6,203.5 L 400.7,202.7 L 401.9,201.6 L 404.3,204.2 L 403.6,208.0 L 411.0,212.5 L 408.8,216.9 L 416.3,219.2 L 410.9,226.5 L 410.4,223.7 L 402.2,222.5 L 401.7,220.5 L 399.2,221.3 L 399.4,223.8 L 390.4,220.6 L 384.8,222.9 L 382.4,220.7 L 386.6,214.2 L 383.9,213.0 L 385.8,207.6 Z" fill="#475569" />
  <path id="DE-BB" data-name="Brandenburg" d="M 421.9,139.8 L 423.8,145.9 L 440.0,145.3 L 439.7,149.7 L 432.9,157.9 L 440.9,158.1 L 444.0,154.0 L 449.0,153.0 L 450.4,157.8 L 446.3,163.9 L 447.4,167.2 L 446.3,171.7 L 435.1,180.3 L 435.7,186.4 L 434.0,189.4 L 445.0,195.4 L 451.3,202.9 L 460.0,208.7 L 458.0,212.1 L 459.6,214.6 L 454.4,222.2 L 457.2,228.5 L 456.6,230.1 L 463.0,233.6 L 461.5,242.4 L 465.1,245.9 L 462.1,258.2 L 457.3,263.2 L 465.0,275.5 L 465.0,280.1 L 462.3,280.4 L 461.3,283.9 L 456.5,282.4 L 445.1,287.6 L 435.6,284.4 L 432.5,287.9 L 433.3,289.0 L 430.4,289.0 L 431.9,291.4 L 428.7,296.7 L 426.5,294.9 L 416.8,297.6 L 405.8,297.0 L 398.9,290.9 L 397.6,293.0 L 394.6,291.9 L 392.1,295.8 L 389.4,295.0 L 388.9,292.6 L 387.4,292.8 L 389.1,287.2 L 388.0,283.5 L 380.9,276.9 L 387.7,272.0 L 384.6,262.5 L 385.9,260.6 L 380.1,260.8 L 380.5,258.6 L 376.9,258.6 L 376.3,256.1 L 370.9,256.3 L 370.6,253.8 L 367.6,254.3 L 361.9,250.7 L 355.1,252.7 L 351.6,248.9 L 349.4,250.2 L 338.6,239.2 L 342.7,235.2 L 340.3,233.0 L 343.5,226.2 L 342.3,225.1 L 343.2,221.9 L 341.7,221.0 L 344.6,216.4 L 339.7,213.1 L 337.8,215.2 L 336.3,214.4 L 337.3,212.5 L 335.1,213.0 L 337.0,209.5 L 336.5,205.6 L 339.9,205.4 L 339.6,201.0 L 337.8,199.0 L 338.5,194.6 L 340.7,193.0 L 339.6,188.3 L 319.8,184.7 L 318.9,183.3 L 320.2,181.4 L 312.2,179.3 L 311.9,177.1 L 309.1,176.8 L 309.4,174.6 L 303.5,174.2 L 300.4,171.7 L 294.8,173.5 L 291.1,169.9 L 297.3,169.4 L 297.3,167.2 L 304.5,168.4 L 306.4,165.3 L 305.8,161.7 L 309.3,159.5 L 319.2,160.7 L 317.7,158.8 L 329.0,155.0 L 330.3,150.0 L 336.2,152.3 L 339.3,150.9 L 340.8,153.5 L 347.6,155.0 L 350.0,159.0 L 361.2,158.6 L 361.5,160.6 L 365.8,161.0 L 364.8,162.9 L 366.0,163.8 L 376.6,162.9 L 375.0,164.8 L 376.8,165.7 L 383.8,159.7 L 386.9,158.9 L 389.3,161.5 L 392.9,156.8 L 398.1,159.2 L 399.7,155.3 L 404.1,153.7 L 405.3,147.6 L 409.0,146.9 L 413.3,141.4 L 419.3,140.2 L 416.9,139.0 L 417.3,135.6 L 418.8,138.7 L 421.9,139.8 Z M 401.9,201.6 L 400.7,202.7 L 401.6,203.5 L 396.3,205.6 L 392.1,203.1 L 391.4,205.5 L 389.3,205.2 L 388.6,208.5 L 384.6,208.4 L 385.8,209.8 L 383.9,213.0 L 386.6,214.2 L 382.7,221.5 L 384.8,222.9 L 393.1,220.9 L 399.4,223.8 L 399.2,221.3 L 401.7,220.5 L 402.2,222.5 L 410.4,223.7 L 410.9,226.5 L 415.0,221.9 L 416.0,218.4 L 408.8,216.9 L 411.0,212.5 L 403.6,208.0 L 404.3,204.2 L 401.9,201.6 Z" fill="#475569" />
  <path id="DE-HB" data-name="Bremen" d="M 176.3,167.9 L 174.4,168.2 L 176.6,170.1 L 175.1,170.7 L 176.1,173.7 L 173.8,176.3 L 170.3,174.2 L 167.9,175.6 L 165.6,173.2 L 163.5,174.7 L 158.2,165.1 L 151.2,160.3 L 156.8,161.2 L 156.6,163.5 L 168.4,165.0 L 170.1,167.2 L 174.3,165.7 L 176.3,167.9 Z" fill="#475569" />
  <path id="DE-HH" data-name="Hamburg" d="M 230.8,123.3 L 237.1,121.6 L 234.4,125.6 L 238.6,129.7 L 234.9,135.6 L 243.8,143.9 L 239.6,147.1 L 236.1,146.8 L 229.9,141.8 L 227.0,145.2 L 222.5,145.6 L 223.1,143.0 L 220.2,144.5 L 215.3,138.6 L 215.6,134.9 L 213.3,134.7 L 215.1,129.3 L 218.4,132.7 L 222.5,127.6 L 230.8,125.6 L 230.8,123.3 Z" fill="#475569" />
  <path id="DE-HE" data-name="Hessen" d="M 202.0,278.1 L 208.5,277.7 L 211.6,281.6 L 206.6,286.0 L 209.3,289.6 L 209.4,293.3 L 205.7,295.3 L 205.2,298.5 L 213.7,302.0 L 215.7,299.0 L 213.9,300.3 L 212.4,296.9 L 218.1,293.7 L 220.6,296.6 L 220.0,293.7 L 222.7,293.4 L 225.8,303.0 L 230.1,303.6 L 231.0,307.3 L 239.1,310.1 L 237.9,315.1 L 235.8,312.7 L 233.4,313.5 L 236.1,315.1 L 234.7,319.6 L 238.3,321.7 L 235.0,323.8 L 229.3,322.5 L 228.2,324.8 L 230.6,327.2 L 224.6,327.2 L 224.6,328.8 L 226.7,328.0 L 226.1,330.1 L 227.9,329.1 L 230.3,331.7 L 228.2,333.0 L 228.3,335.4 L 224.7,336.2 L 225.0,339.1 L 223.2,340.4 L 224.1,342.2 L 220.8,349.0 L 224.5,349.8 L 224.7,347.0 L 229.6,346.5 L 231.5,349.7 L 229.1,351.0 L 230.3,355.0 L 229.2,359.5 L 225.4,364.3 L 219.5,366.2 L 215.0,364.4 L 214.1,373.2 L 209.8,375.3 L 208.9,376.9 L 210.1,377.9 L 202.1,377.2 L 202.3,382.0 L 203.7,382.5 L 203.1,387.7 L 198.0,388.6 L 195.9,384.9 L 188.9,383.8 L 185.5,388.0 L 185.7,385.9 L 183.9,385.4 L 177.8,387.7 L 176.8,391.1 L 179.4,391.2 L 180.3,394.6 L 178.6,394.9 L 179.3,404.9 L 182.2,405.1 L 182.3,408.7 L 184.3,408.4 L 182.9,411.0 L 185.2,412.0 L 181.8,415.6 L 182.7,418.9 L 180.7,420.5 L 182.5,423.2 L 181.6,425.8 L 183.7,427.6 L 174.7,428.2 L 174.7,431.7 L 167.8,435.6 L 168.3,430.6 L 171.0,430.8 L 172.1,428.2 L 163.4,427.5 L 161.0,423.5 L 161.8,420.2 L 156.9,421.2 L 158.2,425.4 L 154.8,427.4 L 146.6,420.9 L 145.0,415.8 L 151.2,410.4 L 148.3,410.5 L 146.2,406.8 L 146.7,404.7 L 144.3,402.5 L 144.2,397.1 L 140.6,393.1 L 136.2,391.9 L 121.2,396.3 L 116.0,390.5 L 120.3,385.2 L 123.9,387.0 L 124.1,384.4 L 121.7,382.3 L 122.8,379.9 L 127.1,377.8 L 129.2,379.3 L 130.6,378.0 L 129.4,375.4 L 133.8,375.0 L 131.0,367.9 L 126.0,365.2 L 128.3,362.7 L 126.6,360.1 L 127.4,357.2 L 129.6,355.0 L 134.9,355.4 L 135.5,352.0 L 132.8,346.6 L 135.8,342.3 L 133.4,338.4 L 140.6,332.0 L 145.9,333.6 L 150.5,329.8 L 150.3,326.1 L 154.6,322.6 L 152.8,320.8 L 153.8,316.7 L 163.7,315.9 L 162.4,314.1 L 166.2,308.9 L 164.6,304.9 L 157.0,305.9 L 155.6,303.0 L 162.1,296.6 L 174.9,295.7 L 175.4,292.8 L 173.9,292.8 L 172.6,289.1 L 176.5,287.1 L 182.3,287.7 L 182.7,291.8 L 188.5,290.5 L 196.0,280.9 L 194.2,279.4 L 201.4,276.2 L 202.0,278.1 Z" fill="#475569" />
  <path id="DE-MV" data-name="Mecklenburg-Vorpommern" d="M 353.6,64.6 L 360.4,67.8 L 375.8,68.2 L 367.8,70.5 L 359.5,69.2 L 356.5,70.8 L 357.3,72.4 L 349.4,72.8 L 345.6,78.3 L 346.8,80.4 L 345.8,81.4 L 350.6,82.8 L 348.1,80.4 L 354.4,75.8 L 355.3,72.7 L 357.2,74.4 L 361.1,71.8 L 360.5,70.5 L 363.4,70.8 L 362.9,71.5 L 364.4,73.4 L 367.0,71.4 L 368.2,75.3 L 378.7,68.1 L 379.0,71.4 L 382.4,73.7 L 381.5,75.3 L 383.0,80.2 L 392.1,83.8 L 395.1,88.0 L 393.7,89.6 L 398.6,88.4 L 396.9,91.0 L 398.4,89.9 L 400.7,94.9 L 402.9,95.3 L 402.3,92.4 L 412.7,88.7 L 418.2,94.0 L 415.1,99.6 L 423.6,107.8 L 419.1,112.1 L 424.8,108.9 L 423.2,102.6 L 426.2,102.6 L 425.9,106.9 L 427.1,104.7 L 430.0,106.3 L 430.3,102.1 L 426.6,97.0 L 423.4,96.9 L 424.1,99.1 L 421.0,101.9 L 421.8,98.8 L 420.8,98.1 L 416.3,100.4 L 418.5,94.3 L 415.3,89.7 L 418.0,88.2 L 421.4,94.1 L 428.6,97.7 L 439.0,107.2 L 437.3,108.3 L 438.8,112.1 L 429.8,111.5 L 422.8,114.1 L 418.2,112.7 L 429.8,120.5 L 442.1,121.7 L 438.7,124.5 L 441.6,124.8 L 442.4,129.7 L 444.2,130.9 L 443.1,136.7 L 446.8,142.9 L 448.8,152.7 L 444.0,154.0 L 440.9,158.1 L 432.9,157.9 L 439.7,149.7 L 440.0,145.3 L 423.8,145.9 L 421.9,139.7 L 418.8,138.7 L 417.3,135.6 L 416.9,139.0 L 419.3,140.2 L 413.3,141.4 L 409.0,146.9 L 405.3,147.6 L 404.1,153.7 L 399.7,155.3 L 398.1,159.2 L 392.9,156.8 L 389.3,161.5 L 386.9,158.9 L 383.8,159.7 L 376.8,165.7 L 375.0,164.8 L 376.6,162.9 L 366.0,163.8 L 364.8,162.9 L 365.8,161.0 L 361.5,160.6 L 361.2,158.6 L 350.0,159.0 L 347.6,155.0 L 340.8,153.5 L 339.3,150.9 L 336.2,152.3 L 330.3,150.0 L 329.0,155.0 L 325.2,157.5 L 322.4,156.9 L 321.1,159.1 L 317.7,158.8 L 319.2,160.7 L 314.9,161.5 L 309.3,159.5 L 305.2,162.2 L 306.4,165.3 L 304.5,168.4 L 297.3,167.2 L 296.7,169.4 L 286.7,167.3 L 287.3,164.0 L 280.8,160.2 L 277.1,152.3 L 273.3,151.1 L 269.3,154.3 L 262.7,149.0 L 257.2,149.4 L 259.3,142.5 L 268.5,138.6 L 268.5,133.8 L 273.5,133.4 L 274.7,126.4 L 265.2,120.8 L 264.5,114.0 L 265.7,110.9 L 271.1,107.4 L 272.4,109.4 L 275.5,108.7 L 271.7,107.7 L 272.1,105.2 L 286.3,100.7 L 290.3,103.0 L 290.3,106.9 L 294.2,105.0 L 300.2,109.5 L 301.6,104.3 L 299.6,104.9 L 299.7,102.1 L 298.8,104.8 L 296.8,104.5 L 296.3,102.1 L 302.1,100.1 L 300.8,103.8 L 302.0,104.3 L 303.4,99.4 L 306.1,99.4 L 308.8,95.0 L 307.6,94.0 L 304.1,98.1 L 303.7,96.4 L 311.6,90.1 L 320.2,90.7 L 331.9,87.8 L 332.2,90.2 L 333.8,90.4 L 334.7,88.6 L 332.3,88.0 L 344.6,79.0 L 353.6,64.6 Z M 399.3,49.1 L 396.6,52.9 L 398.8,57.3 L 411.8,58.5 L 411.3,61.8 L 406.3,66.3 L 408.3,70.7 L 411.5,71.1 L 416.2,75.6 L 413.7,78.0 L 414.1,80.9 L 410.2,79.1 L 413.1,76.8 L 408.4,77.6 L 412.0,75.0 L 408.5,76.5 L 406.9,74.7 L 400.5,76.1 L 397.5,81.0 L 395.4,81.2 L 398.7,82.3 L 397.5,84.9 L 392.3,82.6 L 393.9,83.1 L 394.5,80.5 L 391.3,82.4 L 387.7,81.1 L 387.5,79.1 L 384.7,80.2 L 387.0,78.8 L 383.5,76.4 L 384.1,73.3 L 390.9,72.4 L 388.3,68.8 L 385.2,68.9 L 391.2,65.0 L 389.1,64.5 L 389.3,62.5 L 385.7,63.1 L 384.9,59.8 L 390.5,59.3 L 393.0,62.3 L 392.7,59.3 L 396.2,57.2 L 394.7,59.6 L 396.7,58.8 L 398.5,63.9 L 403.1,64.9 L 402.9,59.6 L 397.6,57.7 L 396.3,54.5 L 389.9,58.8 L 391.9,52.0 L 385.8,58.8 L 390.3,51.0 L 399.3,49.1 Z M 387.0,63.8 L 389.1,65.8 L 383.8,67.8 L 387.0,63.8 Z M 384.6,55.2 L 385.7,57.2 L 383.3,56.9 L 383.6,60.5 L 380.9,66.7 L 382.6,56.4 L 384.6,55.2 Z" fill="#475569" />
  <path id="DE-NI" data-name="Niedersachsen" d="M 161.0,110.1 L 164.8,113.9 L 171.2,115.0 L 177.8,114.4 L 181.8,110.7 L 191.5,111.8 L 202.4,124.7 L 204.4,130.5 L 215.6,134.9 L 215.3,138.6 L 220.2,144.5 L 222.1,142.2 L 223.4,143.9 L 222.5,145.6 L 226.3,145.5 L 229.9,141.8 L 236.1,146.8 L 243.8,144.2 L 256.2,149.7 L 262.7,149.0 L 269.3,154.3 L 273.9,151.1 L 277.1,152.3 L 280.8,160.2 L 287.3,164.0 L 286.7,167.3 L 290.8,167.9 L 293.9,173.0 L 300.4,171.7 L 307.6,175.1 L 305.7,177.8 L 303.2,177.5 L 302.8,182.0 L 293.5,186.9 L 279.5,183.9 L 277.0,184.4 L 274.5,188.5 L 265.6,188.5 L 267.1,198.3 L 268.9,198.0 L 273.4,206.7 L 276.3,205.6 L 274.0,209.7 L 277.9,215.2 L 274.7,215.2 L 274.2,217.6 L 281.3,223.9 L 276.7,226.6 L 282.0,234.8 L 278.4,236.9 L 280.8,239.1 L 279.9,241.5 L 274.8,243.6 L 276.1,247.1 L 261.9,247.4 L 255.4,250.6 L 260.1,254.2 L 257.9,255.5 L 260.1,258.3 L 256.1,262.2 L 256.2,267.1 L 258.9,269.0 L 262.6,277.2 L 259.3,279.0 L 260.5,283.4 L 257.5,282.1 L 253.4,284.0 L 246.2,281.5 L 244.7,286.0 L 239.1,289.7 L 237.0,288.9 L 234.4,291.8 L 235.3,292.7 L 229.9,292.1 L 224.3,296.3 L 222.7,293.4 L 220.0,293.7 L 220.6,296.6 L 218.1,293.7 L 212.4,296.9 L 213.9,300.3 L 215.7,299.0 L 213.7,302.0 L 205.2,298.5 L 205.7,295.3 L 209.4,293.3 L 209.3,289.6 L 206.6,286.0 L 211.6,281.6 L 208.5,277.7 L 196.2,276.9 L 197.5,273.2 L 196.5,268.9 L 199.6,266.4 L 198.9,262.9 L 200.4,261.8 L 194.1,262.0 L 194.6,259.0 L 190.9,256.6 L 191.1,253.6 L 186.0,252.9 L 187.1,251.5 L 185.8,248.8 L 186.7,246.1 L 183.9,244.5 L 185.0,242.3 L 178.0,241.6 L 176.3,237.0 L 179.4,238.0 L 179.0,235.0 L 180.8,234.5 L 175.2,230.8 L 183.2,221.8 L 181.8,218.8 L 183.9,216.3 L 181.7,214.7 L 179.6,214.4 L 174.0,221.7 L 169.8,222.7 L 162.4,222.3 L 162.1,214.3 L 159.6,212.2 L 152.3,213.5 L 148.5,218.3 L 142.1,217.3 L 142.5,221.4 L 149.1,224.6 L 150.4,228.1 L 149.2,235.8 L 152.9,237.6 L 147.1,243.2 L 140.3,241.5 L 136.6,245.9 L 128.4,246.3 L 125.5,248.6 L 121.1,245.0 L 127.3,242.9 L 127.7,238.7 L 121.8,236.7 L 124.5,231.0 L 123.2,228.9 L 126.2,228.5 L 123.7,224.3 L 112.7,221.8 L 111.4,217.8 L 107.4,216.4 L 105.6,219.7 L 107.2,220.4 L 106.1,223.7 L 91.6,232.0 L 80.1,233.5 L 78.1,229.7 L 80.6,223.2 L 76.9,216.8 L 74.1,219.2 L 62.3,215.7 L 60.8,210.4 L 65.0,209.8 L 62.8,207.9 L 63.8,203.7 L 79.2,204.5 L 81.4,188.9 L 89.7,177.6 L 89.5,170.1 L 88.0,168.1 L 91.3,165.2 L 90.9,162.5 L 90.3,159.9 L 86.9,159.6 L 89.1,152.7 L 78.0,152.2 L 76.6,150.3 L 79.1,139.3 L 78.3,137.4 L 83.3,137.4 L 81.2,134.1 L 84.6,130.2 L 92.5,126.0 L 103.2,126.9 L 127.6,123.9 L 129.1,129.1 L 132.3,129.1 L 135.5,135.7 L 134.6,138.8 L 130.1,139.4 L 130.5,142.5 L 139.5,147.5 L 142.7,142.4 L 142.7,138.2 L 138.4,138.3 L 140.5,131.6 L 152.7,135.6 L 154.8,137.9 L 152.9,139.8 L 155.5,138.5 L 151.1,125.2 L 154.8,114.5 L 161.0,110.1 Z M 152.9,162.8 L 158.2,165.1 L 163.5,174.7 L 165.6,173.2 L 167.9,175.6 L 170.3,174.2 L 173.8,176.3 L 176.1,173.7 L 175.1,170.7 L 176.6,170.1 L 174.4,168.2 L 176.3,167.9 L 174.3,165.7 L 170.1,167.2 L 168.4,165.0 L 156.6,163.5 L 156.8,161.2 L 151.2,160.3 L 152.9,162.8 Z M 151.8,107.1 L 152.7,108.2 L 151.3,108.4 L 151.8,107.1 Z M 127.3,118.2 L 127.9,121.3 L 126.2,119.4 L 127.3,118.2 Z M 121.6,117.6 L 125.2,119.0 L 119.1,118.1 L 121.6,117.6 Z M 112.1,118.7 L 117.1,119.1 L 110.1,120.3 L 112.1,118.7 Z M 105.4,120.4 L 108.1,121.0 L 100.1,122.7 L 101.0,120.6 L 105.4,120.4 Z M 96.4,122.1 L 98.2,122.8 L 94.7,122.7 L 96.4,122.1 Z M 92.5,122.9 L 93.8,123.2 L 83.6,124.3 L 92.5,122.9 Z M 79.6,125.9 L 81.4,126.2 L 69.3,127.7 L 79.6,125.9 Z M 71.7,128.2 L 71.5,130.3 L 69.8,129.3 L 71.7,128.2 Z M 64.7,130.9 L 67.2,132.1 L 62.6,133.5 L 64.1,135.6 L 58.1,132.5 L 64.7,130.9 Z" fill="#475569" />
  <path id="DE-NW" data-name="Nordrhein-Westfalen" d="M 160.2,212.7 L 162.1,214.3 L 162.4,222.3 L 164.0,222.8 L 174.0,221.7 L 179.6,214.4 L 183.6,215.7 L 181.4,225.1 L 178.4,226.0 L 175.2,230.8 L 180.8,234.5 L 179.0,235.0 L 179.4,238.0 L 176.3,237.0 L 178.0,241.6 L 185.0,242.3 L 183.9,244.5 L 186.7,246.1 L 185.8,248.8 L 187.1,251.5 L 186.0,252.9 L 191.1,253.6 L 190.9,256.6 L 194.6,259.0 L 194.1,262.0 L 200.4,261.8 L 198.9,262.9 L 199.6,266.4 L 196.3,270.0 L 197.5,273.2 L 196.2,276.9 L 199.7,277.1 L 194.2,279.4 L 196.0,280.9 L 188.5,290.5 L 182.7,291.8 L 182.6,288.0 L 179.1,286.2 L 172.6,289.1 L 173.9,292.8 L 175.4,292.8 L 174.9,295.7 L 162.1,296.6 L 158.5,299.4 L 155.4,303.8 L 157.0,305.9 L 163.9,304.1 L 166.2,308.9 L 162.4,314.1 L 163.7,315.9 L 153.8,316.7 L 152.8,320.8 L 154.6,322.6 L 150.3,326.1 L 150.5,329.8 L 145.9,333.6 L 140.6,332.0 L 133.4,338.4 L 135.8,342.1 L 134.5,345.3 L 129.5,344.9 L 125.5,339.6 L 125.5,334.6 L 118.5,332.0 L 119.5,328.8 L 116.8,327.6 L 113.6,329.3 L 115.1,334.6 L 109.8,336.4 L 111.2,338.5 L 109.8,340.1 L 95.8,343.8 L 93.7,349.4 L 87.6,350.6 L 87.2,348.8 L 84.2,352.4 L 79.5,352.1 L 73.2,355.3 L 73.3,357.2 L 71.0,357.5 L 71.9,361.7 L 69.9,362.9 L 66.8,360.1 L 64.2,361.3 L 67.1,369.7 L 61.9,371.1 L 60.3,368.7 L 58.6,370.5 L 56.9,367.4 L 49.0,370.8 L 49.5,368.9 L 46.1,367.2 L 46.7,371.6 L 43.5,367.5 L 45.2,362.9 L 43.0,359.5 L 37.7,358.9 L 35.1,355.5 L 40.4,350.8 L 35.1,350.5 L 35.2,347.8 L 32.4,344.3 L 27.9,343.1 L 27.0,339.5 L 24.6,338.1 L 27.8,336.7 L 27.4,334.6 L 30.1,334.4 L 30.6,329.1 L 27.2,328.3 L 27.9,324.7 L 21.6,325.1 L 20.0,319.9 L 24.9,321.1 L 27.2,316.8 L 35.1,312.6 L 33.7,311.1 L 36.1,309.8 L 31.1,311.0 L 30.4,306.0 L 38.1,297.3 L 38.2,294.6 L 37.3,286.4 L 31.0,280.0 L 32.4,276.0 L 28.4,274.7 L 29.0,271.9 L 24.6,270.1 L 26.7,268.2 L 25.0,263.6 L 29.9,261.2 L 34.9,262.6 L 31.8,259.4 L 34.4,258.2 L 47.4,264.0 L 46.6,260.4 L 50.5,261.9 L 61.2,257.1 L 63.7,258.7 L 68.5,253.8 L 68.4,251.6 L 61.5,248.4 L 61.6,245.9 L 63.7,245.8 L 65.0,242.5 L 70.4,241.9 L 76.4,234.6 L 84.6,231.7 L 91.6,232.0 L 106.1,223.7 L 107.2,220.4 L 105.6,219.7 L 107.4,216.4 L 111.4,217.8 L 112.7,221.8 L 123.7,224.3 L 126.2,228.5 L 123.2,228.9 L 124.5,231.0 L 121.8,236.7 L 128.1,239.4 L 126.8,239.8 L 127.3,242.9 L 121.1,245.0 L 122.7,247.7 L 136.6,245.9 L 140.3,241.5 L 147.1,243.2 L 152.9,237.6 L 149.2,235.8 L 150.4,228.1 L 149.1,224.6 L 142.5,221.4 L 141.8,217.6 L 148.5,218.3 L 152.3,213.5 L 160.2,212.7 Z" fill="#475569" />
  <path id="DE-RP" data-name="Rheinland-Pfalz" d="M 116.8,327.6 L 119.5,328.8 L 118.5,332.0 L 125.5,334.6 L 125.5,339.6 L 129.5,344.9 L 132.9,344.7 L 133.9,351.1 L 135.6,352.5 L 133.9,356.5 L 129.6,355.0 L 127.4,357.2 L 126.6,360.1 L 128.3,362.7 L 126.0,365.2 L 131.0,367.9 L 133.8,375.0 L 129.4,375.4 L 130.6,378.0 L 129.2,379.3 L 127.1,377.8 L 122.8,379.9 L 121.7,382.3 L 124.1,384.4 L 123.9,387.0 L 120.3,385.2 L 116.0,390.5 L 121.2,396.3 L 139.7,392.3 L 144.2,397.1 L 144.3,402.5 L 146.7,404.7 L 146.2,406.8 L 148.3,410.5 L 151.2,410.4 L 145.0,415.8 L 148.3,423.1 L 147.8,425.4 L 150.3,430.9 L 149.2,432.4 L 152.3,433.0 L 150.1,436.5 L 151.8,436.4 L 151.6,438.7 L 149.4,440.6 L 151.5,442.7 L 146.5,446.8 L 145.0,456.6 L 138.9,465.6 L 131.4,464.2 L 123.6,459.6 L 120.2,461.1 L 116.8,459.0 L 110.3,460.3 L 103.3,456.8 L 101.3,451.9 L 94.4,451.7 L 91.3,446.6 L 96.0,443.3 L 97.2,437.4 L 91.4,436.1 L 89.5,433.1 L 92.2,430.5 L 90.9,428.2 L 92.3,426.1 L 90.8,425.9 L 90.3,422.6 L 87.5,424.0 L 78.2,418.8 L 57.0,427.6 L 45.4,425.7 L 44.7,423.9 L 47.4,420.9 L 47.7,417.5 L 52.4,413.4 L 53.0,407.6 L 46.8,406.8 L 44.7,404.4 L 42.1,405.7 L 42.0,403.6 L 38.3,401.7 L 37.4,397.6 L 34.6,397.4 L 31.4,390.0 L 33.8,382.0 L 36.0,380.9 L 35.0,377.6 L 40.3,375.6 L 41.6,371.9 L 47.6,371.6 L 45.5,367.5 L 49.5,368.9 L 49.0,370.8 L 56.9,367.4 L 58.6,370.5 L 60.3,368.7 L 61.9,371.1 L 67.1,369.7 L 64.2,361.3 L 66.8,360.1 L 69.9,362.9 L 71.9,361.7 L 71.0,357.5 L 73.3,357.2 L 73.2,355.3 L 79.5,352.1 L 84.2,352.4 L 87.2,348.8 L 87.6,350.6 L 93.7,349.4 L 95.8,343.8 L 109.8,340.1 L 111.2,338.5 L 109.8,336.4 L 115.1,334.6 L 113.6,329.3 L 116.8,327.6 Z" fill="#475569" />
  <path id="DE-SL" data-name="Saarland" d="M 78.5,419.1 L 87.5,424.0 L 90.3,422.6 L 90.8,425.9 L 92.3,426.1 L 90.9,428.2 L 92.2,430.5 L 89.5,433.1 L 91.4,436.1 L 97.2,437.4 L 96.0,443.3 L 91.3,446.6 L 94.8,453.5 L 86.6,455.5 L 81.6,452.8 L 79.5,455.7 L 78.3,450.5 L 72.8,448.1 L 68.6,448.7 L 69.6,451.2 L 68.3,453.0 L 63.5,452.1 L 60.0,444.2 L 54.8,439.4 L 56.5,438.2 L 53.3,433.6 L 48.1,430.8 L 44.2,431.4 L 45.1,425.7 L 57.0,427.6 L 73.6,419.4 L 78.5,419.1 Z" fill="#475569" />
  <path id="DE-ST" data-name="Sachsen-Anhalt" d="M 309.1,176.2 L 311.9,177.1 L 312.2,179.3 L 320.2,181.4 L 318.9,183.3 L 319.8,184.7 L 339.6,188.3 L 340.7,193.0 L 338.5,194.6 L 337.8,199.0 L 339.6,201.0 L 339.9,205.4 L 336.5,205.6 L 337.0,209.5 L 335.1,213.0 L 337.3,212.5 L 336.3,214.4 L 337.8,215.2 L 339.7,213.1 L 344.6,216.4 L 341.7,221.0 L 343.2,221.9 L 342.3,225.1 L 343.5,226.2 L 340.3,233.0 L 342.7,235.2 L 338.6,239.2 L 341.6,243.9 L 349.4,250.2 L 352.2,249.2 L 355.1,252.7 L 361.9,250.7 L 367.6,254.3 L 370.6,253.8 L 370.9,256.3 L 376.3,256.1 L 376.9,258.6 L 380.5,258.6 L 380.1,260.8 L 385.9,260.6 L 384.6,262.5 L 387.7,272.0 L 379.7,277.7 L 378.5,275.5 L 375.5,277.6 L 369.8,274.5 L 367.0,277.2 L 362.5,276.0 L 360.0,279.2 L 340.0,282.8 L 337.8,285.4 L 338.1,288.6 L 335.4,290.2 L 337.7,293.2 L 337.6,299.8 L 335.5,300.5 L 338.4,308.0 L 336.9,310.3 L 338.7,310.4 L 338.0,313.3 L 340.1,314.1 L 339.2,315.4 L 342.4,316.7 L 340.6,320.4 L 343.0,321.0 L 339.3,327.4 L 337.2,324.8 L 328.5,325.5 L 326.5,323.6 L 327.1,322.3 L 321.7,319.1 L 315.7,320.4 L 310.9,315.4 L 301.0,315.7 L 301.1,309.8 L 295.7,307.7 L 301.5,302.1 L 297.6,298.9 L 297.3,295.9 L 293.7,294.1 L 277.0,293.6 L 277.9,292.8 L 275.8,292.5 L 276.1,289.0 L 274.3,287.7 L 274.9,285.0 L 271.6,281.8 L 274.3,280.7 L 273.7,279.1 L 262.6,277.2 L 258.9,269.0 L 256.2,267.1 L 256.1,262.2 L 260.1,258.3 L 257.9,255.5 L 260.1,254.2 L 256.7,252.8 L 255.7,250.0 L 258.8,250.4 L 261.9,247.4 L 276.1,247.1 L 274.8,243.6 L 279.9,241.5 L 280.8,239.1 L 278.4,236.9 L 282.0,234.8 L 276.7,226.6 L 281.3,223.9 L 274.2,217.6 L 274.7,215.2 L 277.9,215.2 L 274.0,209.7 L 276.3,205.6 L 273.4,206.7 L 268.9,198.0 L 267.1,198.3 L 265.6,188.5 L 274.5,188.5 L 277.0,184.4 L 279.5,183.9 L 293.5,186.9 L 302.8,182.0 L 303.5,177.3 L 310.0,175.1 L 309.1,176.2 Z" fill="#475569" />
  <path id="DE-SN" data-name="Sachsen" d="M 371.6,275.1 L 375.5,277.6 L 378.5,275.5 L 382.6,279.9 L 386.3,280.5 L 385.9,283.2 L 389.1,285.9 L 387.4,292.8 L 388.9,292.6 L 389.4,295.0 L 392.1,295.8 L 394.6,291.9 L 397.6,293.0 L 398.9,290.9 L 405.8,297.0 L 416.8,297.6 L 426.5,294.9 L 428.7,296.7 L 431.9,291.4 L 430.4,289.0 L 433.3,289.0 L 432.5,287.9 L 435.6,284.4 L 445.1,287.6 L 456.5,282.4 L 461.3,283.9 L 462.6,280.4 L 465.0,285.9 L 473.6,288.1 L 476.3,291.0 L 476.5,298.1 L 479.5,301.3 L 480.0,306.3 L 474.6,324.1 L 469.1,331.2 L 468.3,335.7 L 458.6,333.9 L 460.6,328.3 L 456.0,329.0 L 457.8,324.3 L 453.1,322.3 L 453.1,319.8 L 452.5,322.1 L 447.8,322.9 L 442.7,319.7 L 440.3,325.4 L 448.0,327.6 L 446.6,331.5 L 440.7,331.6 L 430.8,337.7 L 425.6,337.5 L 422.7,339.0 L 422.8,341.8 L 420.4,343.6 L 405.3,343.9 L 404.1,349.5 L 401.1,352.2 L 396.5,348.9 L 394.1,353.3 L 390.2,352.5 L 387.6,359.0 L 379.4,358.4 L 379.1,362.6 L 376.6,365.1 L 369.1,362.0 L 362.9,366.3 L 358.4,364.8 L 353.4,366.1 L 352.3,369.7 L 345.8,374.8 L 344.0,381.6 L 341.7,381.4 L 341.8,378.3 L 339.3,376.4 L 340.2,374.9 L 337.3,374.6 L 337.3,371.5 L 333.5,372.3 L 326.3,369.2 L 326.7,366.6 L 322.2,362.9 L 325.4,362.1 L 326.1,359.7 L 321.5,355.8 L 328.4,349.2 L 329.5,355.0 L 335.8,353.4 L 335.3,349.7 L 341.6,349.2 L 344.5,345.7 L 339.7,341.5 L 342.7,339.0 L 340.7,336.1 L 350.2,334.4 L 352.3,330.8 L 361.0,328.7 L 358.7,323.4 L 354.6,323.3 L 355.2,321.5 L 353.7,322.0 L 353.5,318.8 L 351.1,317.2 L 339.2,315.4 L 340.1,314.1 L 338.0,313.3 L 338.7,310.4 L 336.9,310.3 L 338.4,308.0 L 335.5,300.5 L 337.6,299.8 L 337.7,293.2 L 335.4,290.2 L 338.1,288.6 L 337.5,286.0 L 340.0,282.8 L 371.6,275.1 Z" fill="#475569" />
  <path id="DE-SH" data-name="Schleswig-Holstein" d="M 280.9,60.7 L 289.1,62.9 L 293.1,71.0 L 283.3,70.9 L 282.1,67.6 L 277.8,67.9 L 278.2,63.8 L 280.9,60.7 Z M 147.2,21.0 L 149.0,23.2 L 144.6,27.0 L 145.2,32.1 L 148.4,34.0 L 167.6,31.0 L 188.3,35.7 L 191.2,39.9 L 197.5,36.9 L 198.8,41.0 L 207.8,34.1 L 207.3,37.6 L 216.7,40.3 L 219.3,43.5 L 222.4,42.9 L 222.5,40.3 L 224.9,41.6 L 228.9,50.0 L 226.3,47.8 L 224.1,50.0 L 223.8,53.5 L 215.6,57.1 L 213.2,61.2 L 214.6,59.8 L 224.1,53.8 L 224.6,49.9 L 228.9,50.2 L 228.6,59.5 L 219.2,65.9 L 220.6,67.5 L 233.6,64.5 L 237.2,66.8 L 235.6,68.5 L 236.8,71.9 L 234.6,73.5 L 233.8,78.0 L 236.4,76.7 L 236.1,74.1 L 238.6,70.1 L 243.2,68.4 L 257.5,74.0 L 262.5,78.5 L 266.7,77.9 L 273.8,72.5 L 283.8,71.8 L 280.3,74.6 L 282.1,86.7 L 271.3,95.1 L 267.6,94.5 L 264.9,98.1 L 266.7,102.1 L 271.2,102.9 L 271.7,107.7 L 275.5,108.7 L 272.4,109.4 L 271.1,107.4 L 265.7,110.9 L 264.5,114.0 L 265.2,120.8 L 274.7,126.4 L 273.5,133.4 L 268.5,133.8 L 268.5,138.6 L 259.3,142.5 L 258.4,148.0 L 256.2,149.7 L 243.2,144.2 L 244.1,142.8 L 235.6,137.3 L 235.2,133.1 L 237.7,132.8 L 237.0,130.6 L 238.6,129.7 L 234.4,125.6 L 237.2,122.5 L 236.2,121.1 L 231.4,122.5 L 230.8,125.6 L 227.3,125.3 L 226.7,127.8 L 222.5,127.6 L 218.4,132.7 L 215.1,129.3 L 213.3,134.7 L 210.8,134.2 L 204.4,130.5 L 202.4,124.7 L 191.5,111.8 L 174.5,109.3 L 167.9,100.0 L 175.2,99.2 L 176.3,97.2 L 173.4,91.8 L 169.9,92.5 L 167.3,88.4 L 168.8,82.5 L 172.1,81.9 L 174.6,77.8 L 170.1,81.2 L 169.1,79.7 L 169.3,81.7 L 168.1,79.5 L 159.2,80.9 L 155.9,78.1 L 157.2,74.3 L 161.2,74.4 L 157.4,72.2 L 170.3,70.8 L 178.2,65.4 L 176.1,61.8 L 172.4,66.3 L 167.3,65.7 L 167.2,63.5 L 170.6,61.2 L 171.5,56.2 L 167.6,55.8 L 169.1,54.5 L 168.1,52.1 L 161.3,45.5 L 161.6,42.4 L 156.4,33.4 L 147.7,36.4 L 142.4,34.3 L 143.5,35.1 L 141.9,36.1 L 141.8,44.6 L 140.8,43.8 L 141.8,31.5 L 147.2,21.0 Z M 212.5,61.9 L 204.4,62.7 L 205.8,65.3 L 208.3,62.5 L 212.9,64.1 L 212.1,62.2 L 212.5,61.9 Z M 147.5,20.6 L 147.8,20.0 L 150.0,20.8 L 147.5,20.6 Z M 161.5,59.0 L 160.5,63.8 L 156.4,62.5 L 161.5,59.0 Z M 153.9,43.5 L 156.7,46.3 L 155.3,49.4 L 146.7,47.4 L 148.0,44.5 L 153.9,43.5 Z M 154.5,57.2 L 155.6,58.8 L 152.4,57.6 L 154.5,57.2 Z M 150.7,65.2 L 153.2,68.5 L 150.4,69.4 L 149.4,67.0 L 150.7,65.2 Z M 150.8,59.8 L 152.1,61.0 L 150.5,63.7 L 150.8,59.8 Z M 151.0,56.8 L 152.0,58.9 L 149.7,58.8 L 151.0,56.8 Z M 144.7,47.0 L 143.8,48.7 L 146.6,54.7 L 141.5,50.4 L 144.7,47.0 Z" fill="#475569" />
  <path id="DE-TH" data-name="Thüringen" d="M 265.9,277.1 L 274.3,279.9 L 271.6,281.8 L 274.9,285.0 L 274.3,287.7 L 276.1,289.0 L 275.8,292.5 L 277.9,292.8 L 277.0,293.6 L 293.7,294.1 L 297.3,295.9 L 297.6,298.9 L 301.5,302.1 L 295.7,307.7 L 301.1,309.8 L 302.0,311.7 L 300.2,313.3 L 301.9,316.2 L 310.9,315.4 L 315.7,320.4 L 321.7,319.1 L 327.1,322.3 L 326.5,323.6 L 328.5,325.5 L 337.2,324.8 L 339.0,327.4 L 343.0,321.7 L 340.6,320.4 L 342.4,316.7 L 351.1,317.2 L 353.5,318.8 L 353.7,322.0 L 355.2,321.5 L 354.6,323.3 L 358.7,323.4 L 361.0,329.0 L 352.3,330.8 L 350.2,334.4 L 340.7,336.1 L 342.7,339.0 L 339.7,341.5 L 341.5,341.6 L 341.5,344.7 L 344.1,346.8 L 341.6,349.2 L 338.1,348.6 L 337.7,350.5 L 335.6,349.4 L 334.9,352.9 L 336.1,353.1 L 330.7,355.0 L 328.9,354.2 L 329.0,349.7 L 326.9,350.0 L 324.2,354.7 L 321.5,355.8 L 326.1,360.0 L 324.9,360.3 L 325.4,362.1 L 322.2,362.9 L 324.2,364.0 L 320.9,365.8 L 318.6,366.6 L 316.6,364.5 L 303.6,368.0 L 301.5,363.8 L 299.8,364.6 L 298.3,362.5 L 298.9,358.0 L 294.8,357.5 L 293.6,359.9 L 289.8,360.7 L 291.5,368.5 L 290.0,375.6 L 284.5,374.1 L 285.4,371.2 L 283.0,368.6 L 279.6,370.2 L 277.3,368.6 L 277.3,370.2 L 274.4,366.8 L 271.2,366.6 L 263.1,369.5 L 263.7,372.1 L 269.8,375.2 L 269.8,377.3 L 264.0,376.8 L 263.7,380.2 L 258.2,378.7 L 257.6,371.0 L 251.9,369.5 L 250.2,366.0 L 246.9,366.6 L 247.5,364.5 L 243.9,359.5 L 233.6,354.5 L 229.2,357.9 L 230.3,355.0 L 229.1,351.0 L 231.5,350.5 L 229.6,346.5 L 224.7,347.0 L 224.5,349.8 L 220.8,349.0 L 224.1,342.2 L 223.2,340.4 L 225.0,339.1 L 224.7,336.2 L 228.3,335.4 L 228.2,333.0 L 230.3,331.7 L 227.9,329.1 L 226.1,330.1 L 226.7,328.0 L 224.6,328.8 L 224.6,327.2 L 230.6,327.2 L 228.2,324.8 L 229.3,322.5 L 237.4,323.3 L 237.4,320.4 L 234.7,319.6 L 236.1,315.1 L 233.4,313.5 L 235.8,312.7 L 237.9,315.1 L 239.1,310.6 L 231.0,307.3 L 230.1,303.6 L 225.8,303.0 L 223.4,296.9 L 229.9,292.1 L 235.3,292.7 L 234.4,291.8 L 237.0,288.9 L 242.4,288.2 L 245.6,285.0 L 246.2,281.5 L 260.2,283.8 L 259.3,279.0 L 265.9,277.1 Z" fill="#475569" />
</svg>